<svg width="33" height="24" viewBox="0 0 33 24" fill="none" xmlns="http://www.w3.org/2000/svg">
<path d="M26.6616 2.80013C24.937 2.04753 23.1061 1.47145 21.1992 1.10169C21.0286 1.4347 20.8619 1.78742 20.7305 2.08902L20.4253 2.78962L19.6691 2.67909C17.2852 2.33063 14.9176 2.33107 12.5885 2.67865L11.824 2.79274L11.5209 2.08167C11.3936 1.78297 11.2239 1.43438 11.0479 1.1004C9.14028 1.46924 7.30765 2.0457 5.58047 2.79997C1.75181 8.47814 0.647497 13.9889 1.09262 19.4449C3.42222 21.065 5.68459 22.1168 7.91197 22.8473C8.16151 22.4898 8.39753 22.1244 8.61917 21.7511C8.03731 21.4955 7.47469 21.212 6.92863 20.9062L6.92188 20.9025L6.9219 20.9024C6.23772 20.5124 6.16457 19.5357 6.81651 19.0592C6.97516 18.9431 7.13138 18.8242 7.27845 18.7058C7.27881 18.7055 7.27918 18.7052 7.27954 18.7049L7.79944 19.3509L7.90567 19.1611C7.96998 19.1972 8.03446 19.2328 8.09912 19.268C8.09961 19.2683 8.10009 19.2685 8.10057 19.2688C8.80349 19.6516 9.52734 19.9879 10.2801 20.2667L10.2809 20.267C10.3771 20.3027 10.4665 20.3515 10.5474 20.4109C14.2178 21.5051 18.0217 21.5093 21.6644 20.4236C21.7494 20.3585 21.8454 20.3048 21.9508 20.2657L21.9532 20.2648C22.7101 19.986 23.4312 19.6576 24.1257 19.2743L23.7906 18.5663C23.7948 18.5643 23.7989 18.5624 23.8031 18.5605C23.8045 18.5599 23.8058 18.5593 23.8072 18.5587L24.1291 19.2724C24.193 19.2372 24.2567 19.2014 24.3201 19.1652C24.2528 19.2036 24.1931 19.2484 24.1408 19.2982L24.2184 19.4702M26.6616 2.80013L20.7366 0.00162896C23.0412 0.390201 25.2455 1.06864 27.301 1.98947C27.3188 1.99696 27.334 2.00946 27.3429 2.02695C30.9849 7.25705 32.7836 13.1568 32.1111 19.9487C32.1086 19.9775 32.0933 20.0037 32.0692 20.0212M26.6616 2.80013C30.0132 7.69535 31.6833 13.1661 31.1533 19.4438M26.6616 2.80013L31.116 19.8502M24.2184 19.4702L24.1382 19.3007C24.0488 19.3866 23.9815 19.487 23.9362 19.595C24.0304 19.5541 24.1245 19.5126 24.2184 19.4702ZM24.2184 19.4702C24.2527 19.454 24.2934 19.459 24.3239 19.4827C24.4279 19.5664 24.5351 19.6502 24.6437 19.7322C24.6439 19.7323 24.644 19.7324 24.6441 19.7325C24.704 19.7777 24.7643 19.8224 24.8247 19.8663C24.8832 19.9088 24.8794 19.9975 24.8158 20.0337M24.8158 20.0337C24.7526 20.0698 24.6891 20.1055 24.6254 20.1407L24.5711 20.2155L24.5609 20.2296L24.4009 20.45C24.4779 20.4378 24.5548 20.4153 24.6295 20.3817C24.6351 20.3793 24.6406 20.3767 24.6461 20.3741L24.6379 20.378L24.6295 20.3818C24.5416 20.4214 24.4536 20.4604 24.3654 20.4988L24.2371 20.6754C24.2021 20.65 24.1672 20.6244 24.1325 20.5986C23.8167 20.7317 23.4992 20.8566 23.1803 20.9735C23.3211 21.2359 23.4679 21.4947 23.6204 21.7498M24.8158 20.0337L25.3115 20.9022C24.7624 21.2156 24.1996 21.4974 23.6204 21.7498M24.8158 20.0337L31.1533 19.4438M23.6204 21.7498C23.3124 21.884 22.9997 22.0099 22.6819 22.1277C23.0535 22.7603 23.4578 23.3705 23.8904 23.9581C23.9158 23.9931 23.9616 24.0081 24.0035 23.9956M23.6204 21.7498C23.8436 22.1231 24.079 22.4887 24.3257 22.8463C26.5617 22.1157 28.824 21.0639 31.1533 19.4438M24.0035 23.9956C26.6387 23.1997 29.3107 21.999 32.0692 20.0212M24.0035 23.9956L23.9742 23.8972L23.974 23.8966L23.7181 23.0372C24.069 22.9327 24.4642 23.0511 24.6957 23.3653L24.0035 23.9956ZM32.0692 20.0212L32.0102 19.9398L32.0094 19.9387L31.4826 19.2113C31.2856 19.354 31.1428 19.5818 31.116 19.8502M32.0692 20.0212L32.0109 19.9399L32.0101 19.9387L31.4865 19.2085C31.3753 19.2883 31.2642 19.3667 31.1533 19.4438M22.2442 21.3431C22.2362 21.3277 22.2326 21.3114 22.2328 21.2955C22.2627 21.2861 22.2926 21.2767 22.3225 21.2671L22.3331 21.2961L22.2442 21.3431ZM22.2442 21.3431C22.3482 21.5397 22.4553 21.7343 22.5655 21.9268L22.3333 21.2967L22.2442 21.3431ZM31.116 19.8502L31.1159 19.8502L31.115 19.8605C31.1153 19.8571 31.1157 19.8536 31.116 19.8502ZM22.3333 21.296L22.3226 21.2671C22.3786 21.2493 22.4346 21.2312 22.4905 21.2128L22.3333 21.296ZM22.3336 21.2966L22.5012 21.2094C22.7261 21.1355 22.9503 21.0577 23.1739 20.9758C23.3493 21.4313 23.1245 21.9415 22.6815 22.127C22.6445 22.064 22.6078 22.0007 22.5715 21.9373L22.3336 21.2966ZM7.99473 20.6753L7.99744 20.6733C7.99654 20.674 7.99564 20.6747 7.99473 20.6753ZM24.237 20.6753C24.2026 20.6503 24.1706 20.6235 24.141 20.595C24.2158 20.5634 24.2905 20.5314 24.3651 20.499L24.237 20.6753ZM24.5609 20.2295L24.4006 20.45C24.2863 20.468 24.1714 20.4633 24.062 20.4384C24.2232 20.3572 24.383 20.2733 24.5416 20.1868C24.5458 20.1845 24.55 20.1822 24.5542 20.1799C24.5779 20.1669 24.6016 20.1539 24.6253 20.1408L24.571 20.2155L24.5609 20.2295ZM1.12941 19.8594L1.12873 19.8523C1.12896 19.8546 1.1292 19.857 1.12941 19.8594Z" stroke="#002D3C" stroke-width="2"/>
<circle cx="22" cy="13" r="3" stroke="#002D3C" stroke-width="2"/>
<circle cx="11" cy="13" r="3" stroke="#002D3C" stroke-width="2"/>
</svg>
