<svg width="25" height="24" viewBox="0 0 25 24" fill="none" xmlns="http://www.w3.org/2000/svg">
<path d="M17.9082 10.2596C17.2549 9.55025 16.9051 9.27812 16.3052 8.97711C16.4625 9.58742 16.5541 9.92794 16.9922 10.397C17.3742 10.4345 17.5811 10.4127 17.9082 10.2596Z" fill="#002D3C"/>
<path d="M20.8395 16.4428C20.433 16.2543 20.2236 16.1215 19.8777 15.8473C19.9295 16.0598 19.9705 16.1833 20.1525 16.4428H20.8395Z" fill="#002D3C"/>
<path d="M15.1143 17.6794L19.6487 23.4504C24.0296 20.6863 24.2998 15.2418 23.8624 3.89313L12.6411 0C12.0751 1.83289 12.0395 2.89988 12.6411 4.90076L15.3433 1.96947C16.2626 3.55582 16.1183 4.38601 14.7937 5.77099L19.0075 8.70229C18.5036 10.2595 19.3281 10.8092 22.122 16.3511L20.5647 18.229L18.2288 16.9924L19.3281 18.687C18.6593 18.8621 18.3099 18.8554 17.725 18.687C17.4107 17.7171 17.1364 17.0803 16.3968 15.7099L14.2441 14.8397C13.4197 14.2443 13.2365 13.3282 13.0075 12C12.7785 14.7481 12.9561 16.701 15.1143 17.6794Z" fill="#002D3C"/>
<path d="M10.8549 5.40458C10.416 5.51217 9.52356 6.02637 9.3892 6.18321C8.24365 4.75927 7.74846 3.58058 6.87012 1.46565L9.61821 0.549622C9.97087 2.36814 10.0453 3.46168 10.8549 5.40458Z" fill="#002D3C"/>
<path d="M4.30534 2.47327L1.28244 3.5267C3.08462 5.57203 4.22531 6.67135 6.82443 8.42747L7.96947 7.23663C6.03577 5.2509 5.31851 4.22891 4.30534 2.47327Z" fill="#002D3C"/>
<path d="M5.8626 9.6183L4.99237 11.1756C2.72202 10.7403 1.59933 10.4495 0 9.80151V6.5954C2.02315 7.94536 3.28577 8.62087 5.8626 9.6183Z" fill="#002D3C"/>
<path d="M4.3968 12.8244C2.57619 12.8437 1.62931 12.8001 0.045652 12.6412C-0.00147868 13.5936 0.0331225 14.1518 0.228858 15.2061C1.64292 15.1547 2.47612 15.0222 4.03039 14.6107C4.06214 13.7816 4.15248 13.4024 4.3968 12.8244Z" fill="#002D3C"/>
<path d="M1.55724 20.3359C0.860185 19.3309 0.709573 18.794 0.687012 17.8626L3.70991 16.5344C3.66863 17.5853 3.7108 18.043 3.93892 18.5496C3.1384 19.3689 2.62646 19.7683 1.55724 20.3359Z" fill="#002D3C"/>
<path d="M4.25969 21.2061C3.89978 21.7158 3.65563 21.9903 3.06885 22.4428C3.89199 23.2305 4.37811 23.5473 5.26732 24C4.63416 22.5811 4.40592 21.9612 4.25969 21.2061Z" fill="#002D3C"/>
</svg>
